<svg xmlns="http://www.w3.org/2000/svg" data-name="Logo 1 Color B" viewBox="0 0 2487 487.34">
    <path d="m685.12 307.58-10.18 34.28H614l64.83-178.11h63.6l64.83 178.11H746.1L736 307.58Zm25.46-87.81-12.79 44.46h25.46ZM952.13 252.81l-29.31 89.05h-49.56l-58.5-178.11h61.11l26.71 95.39 26.7-95.39h45.71l26.7 95.39 26.7-95.39h61.11L1031 341.86h-49.68l-29.19-89.05zM1290.63 319.19q-29 27.76-71.48 27.76t-71.48-27.76q-29-27.75-29-66.38t29-66.39q29-27.76 71.48-27.76t71.48 27.76q29 27.75 29 66.39t-29 66.38Zm-102.22-35.71a43.36 43.36 0 0 0 61.35-61.29 43.36 43.36 0 0 0-61.35 61.29ZM1534.79 319.19q-29 27.76-71.48 27.76t-71.48-27.76q-29-27.75-29-66.38t29-66.39q29-27.76 71.48-27.76t71.48 27.76q29 27.75 29 66.39t-29 66.38Zm-102.22-35.71a43.36 43.36 0 0 0 61.35-61.29 43.36 43.36 0 0 0-61.35 61.29Z" style="fill:#fff"/>
    <path d="M1681.51 279.63a58.11 58.11 0 0 0-11.11-4.9q-6.78-2.31-15.16-5a102.45 102.45 0 0 1-16.64-7 81.43 81.43 0 0 1-15-10.06 42.89 42.89 0 0 1-11.05-15.4 52.83 52.83 0 0 1-4.35-21.86q0-22.86 19.56-39.81t51.61-17a108 108 0 0 1 24.28 2.67 82.7 82.7 0 0 1 18.88 6.39 126.87 126.87 0 0 1 12.73 7.4 33.67 33.67 0 0 1 7.7 6.52l2.61 2.48-33 34.41a21.66 21.66 0 0 0-3.16-3.54q-2.18-2.06-8.82-5.66a28 28 0 0 0-13.48-3.6q-7.32 0-11.3 3.23a10.12 10.12 0 0 0-4 8.2q0 4.09 5.72 7.26a56.27 56.27 0 0 0 14.34 5.22 114.13 114.13 0 0 1 18.7 6.4 135.07 135.07 0 0 1 18.69 9.81q8.63 5.46 14.4 16.27t5.78 25.09q0 24.72-20 42.23T1675.67 347a107.9 107.9 0 0 1-26.26-3.17 95.55 95.55 0 0 1-21.24-7.63 144 144 0 0 1-15-8.95 64.54 64.54 0 0 1-9.56-7.7l-3.11-3.1 33.16-33c1.16 1.16 2.76 2.67 4.78 4.53s6.07 4.33 12.11 7.39a38.55 38.55 0 0 0 17.46 4.6q8.37 0 13.1-4.1a12.73 12.73 0 0 0 4.72-9.94q.03-3.69-4.32-6.3ZM1933.87 163.75v52.17h-47.07v125.94h-57.26V215.92h-47.07v-52.17h151.4zM1983.4 163.75h87.69q30.06 0 48.75 18.2t18.69 45.39a66.74 66.74 0 0 1-2.91 20 53.21 53.21 0 0 1-7 15 82.13 82.13 0 0 1-8.14 9.81 27.48 27.48 0 0 1-7.14 5.59l-2.73 1.74 34.28 62.35h-59.74l-26.71-50.93h-17.88v50.93h-57.16Zm94.21 54.34q-3.66-3.42-10.37-3.42h-26.7v25.47h26.7q6.59 0 10.31-3.42a13.58 13.58 0 0 0 .06-18.63ZM2194.52 163.75h57.13v178.11h-57.13zM2364.91 307.58l-10.19 34.28h-61l64.83-178.11h63.6L2487 341.86h-61.11l-10.06-34.28Zm25.46-87.81-12.79 44.46H2403ZM487.52 80v-.06a5 5 0 0 0-4.45-4 18.92 18.92 0 0 0 8.06-19.56l-5.34-26.17A7.92 7.92 0 0 0 474.06 25l-57.58 34a62.63 62.63 0 0 0-31.06-14.4l-18.12-37a3.52 3.52 0 0 0-3-1.95 14.93 14.93 0 0 0-14.57 9.27l-4.08 10-14.12-23.24A3.52 3.52 0 0 0 328.37 0a14.94 14.94 0 0 0-13.67 10.56L295.94 72a18.1 18.1 0 0 0-.43 8.89L298.37 95l-20.23 20.23a5.56 5.56 0 0 0 0 7.85l10.78 10.78-23 23a4.45 4.45 0 0 0 0 6.3l8.26 8.26-72.07 17.21a123.68 123.68 0 0 0-32.48 22.84l-17.06 5a34.1 34.1 0 0 0-20.85 17.23l-39.66 77.47-68.21 48.75a25.29 25.29 0 0 0-9.16 12.21L.47 412.68a8.14 8.14 0 0 0 7.44 10.84l42.59 1.29a25.32 25.32 0 0 0 19.16-7.92l50.4-53.44 14.53-37.6 8 60.31-19.2 42.41 23.8 58.77h31.43a16.61 16.61 0 0 0 13.3-26.56l-21.22-28.32a9.32 9.32 0 0 1 1.21-12.5l27.88-25.22a65.77 65.77 0 0 0 21.67-48.8v-71.39a21.85 21.85 0 0 1 21.85 21.85v59.32h66.22l-.65 86 23.79 45.65H362a15.92 15.92 0 0 0 11.7-26.71l-17.45-18.94v-91.18l68.84-76.19a46.19 46.19 0 0 0 12.52-31.61v-23.49h21.81a5 5 0 0 0 4.53-7.25l-21.8-44.71h11.71a3.81 3.81 0 0 0 3.42-5.49l-14.84-30.45L480 109a19.18 19.18 0 0 0 9.22-20.49Z" style="fill:#e44763"/>
    <path d="M428.58 441.69V312l-45.88 47.12-1.46 82.57L405 487.34h29.29A15.92 15.92 0 0 0 446 460.63ZM269.77 432.46A9.33 9.33 0 0 1 271 420l14.1-12.75v-24.82h-41.79l-20.88 46.14 23.8 58.77h31.43A16.61 16.61 0 0 0 291 460.78Z" style="fill:#e44763"/>
</svg>
