<?xml version="1.0" standalone="no"?>
<!DOCTYPE svg PUBLIC "-//W3C//DTD SVG 20010904//EN"
 "http://www.w3.org/TR/2001/REC-SVG-20010904/DTD/svg10.dtd">
<svg version="1.0" xmlns="http://www.w3.org/2000/svg"
 width="2500.000000pt" height="2500.000000pt" viewBox="0 0 2500.000000 2500.000000"
 preserveAspectRatio="xMidYMid meet">
<metadata>
Created by potrace 1.14, written by Peter Selinger 2001-2017
</metadata>
<g transform="translate(0.000000,2500.000000) scale(0.100000,-0.100000)"
fill="#000000" stroke="none">
<path d="M15802 22409 c-82 -12 -179 -49 -247 -94 -72 -48 -163 -147 -202
-220 -35 -66 -817 -2609 -833 -2711 -19 -113 -11 -182 55 -514 l65 -325 -434
-435 c-404 -405 -434 -438 -445 -482 -15 -63 -14 -86 6 -144 14 -42 48 -81
249 -284 l233 -236 -460 -459 c-254 -253 -474 -480 -490 -504 -34 -53 -39
-131 -13 -184 9 -18 93 -109 187 -204 94 -95 169 -174 167 -176 -3 -2 -659
-159 -1458 -350 l-1453 -346 -122 -62 c-128 -65 -372 -208 -493 -290 -202
-136 -472 -352 -640 -512 l-72 -67 -328 -95 c-425 -123 -494 -147 -610 -205
-189 -97 -375 -257 -497 -427 -65 -92 -34 -33 -1007 -1935 l-714 -1397 -1408
-1006 c-774 -553 -1438 -1033 -1473 -1067 -82 -76 -153 -170 -206 -271 -61
-118 -649 -1795 -656 -1873 -14 -155 90 -307 241 -348 60 -17 1779 -72 1931
-62 210 13 420 101 592 247 28 24 519 540 1090 1146 l1039 1102 290 750 c238
620 290 746 296 723 4 -15 77 -560 163 -1210 l155 -1184 -391 -863 -391 -864
486 -1198 485 -1198 693 0 c638 0 698 2 758 18 309 86 510 349 510 666 0 112
-17 187 -64 286 -22 47 -188 278 -500 695 -411 551 -469 633 -486 689 -34 107
-20 214 38 309 17 27 254 249 632 591 619 562 759 696 870 836 235 296 420
679 508 1050 70 295 66 170 69 1929 l4 1589 82 -6 c106 -7 247 -53 354 -113
163 -93 314 -267 381 -440 64 -166 62 -120 62 -1495 l0 -1249 1348 0 1347 0
-2 -188 c-2 -103 -8 -889 -14 -1747 l-11 -1560 485 -930 485 -930 649 0 c595
0 653 2 712 18 194 55 342 181 427 362 36 78 64 198 64 275 0 73 -27 194 -59
265 -43 92 -91 150 -470 560 l-351 380 0 1857 0 1857 1408 1558 c774 857 1434
1589 1466 1627 162 191 298 455 366 708 60 225 62 262 67 875 l5 562 467 3
468 3 49 30 c37 23 56 44 77 85 52 100 72 50 -426 1071 -246 504 -447 919
-447 923 0 3 113 6 251 6 211 0 256 3 285 16 49 23 77 68 82 129 4 50 -3 65
-302 680 -169 346 -305 632 -304 637 2 4 352 215 778 469 426 253 795 476 820
494 138 101 245 263 290 439 34 134 28 255 -25 510 -24 118 -51 228 -59 243
-20 39 -54 68 -103 91 l-43 19 46 34 c70 52 150 154 200 254 64 130 79 196 78
345 0 120 -5 148 -118 695 -128 622 -132 633 -214 706 -82 71 -208 98 -313 65
-24 -7 -566 -321 -1204 -698 -638 -377 -1170 -690 -1183 -697 -20 -10 -28 -7
-80 37 -194 161 -466 314 -727 410 -99 36 -344 102 -436 117 l-36 5 -368 753
c-203 413 -375 762 -383 774 -19 31 -91 63 -139 63 -132 0 -294 -60 -399 -148
-94 -77 -147 -167 -244 -409 -47 -117 -88 -213 -91 -213 -4 0 -136 214 -295
476 -211 347 -297 480 -319 494 -41 25 -79 29 -153 19z"/>
<path d="M19008 8759 l-938 -963 -1 -135 c0 -75 -13 -831 -28 -1681 l-28
-1545 486 -933 486 -933 650 4 c724 4 698 1 845 74 107 54 222 169 277 280 57
113 77 209 70 337 -6 119 -30 205 -84 294 -23 37 -188 225 -413 469 l-375 407
-5 2644 -5 2644 -937 -963z"/>
<path d="M12381 6808 c-10 -24 -201 -447 -425 -940 l-406 -897 471 -1163 c259
-640 478 -1180 486 -1201 l16 -38 696 3 c685 4 697 4 769 26 195 59 336 178
423 357 53 109 72 190 71 305 0 108 -19 195 -64 288 -18 38 -214 310 -492 680
-271 363 -471 640 -486 672 -19 44 -24 72 -24 140 0 90 17 145 69 220 14 19
160 157 325 305 l300 270 0 508 0 507 -855 0 -856 0 -18 -42z"/>
</g>
</svg>
